<svg xmlns="http://www.w3.org/2000/svg" xmlns:xlink="http://www.w3.org/1999/xlink" width="500" zoomAndPan="magnify" viewBox="0 0 375 374.999991" height="500" preserveAspectRatio="xMidYMid meet" version="1.0"><defs><clipPath id="5ccec7d9bf"><path d="M 34 194 L 62 194 L 62 298.921875 L 34 298.921875 Z M 34 194 " clip-rule="nonzero"/></clipPath></defs><path fill="#000000" d="M 0.367188 194.664062 C 0.53125 194.183594 0.746094 193.871094 0.847656 193.527344 C 1.78125 190.320312 3.9375 188.460938 7.0625 187.386719 C 17.28125 183.878906 26.894531 179.15625 35.472656 172.511719 C 42.792969 166.847656 49.171875 160.203125 55.195312 153.207031 C 58.378906 149.507812 61.539062 145.785156 64.722656 142.082031 C 69.703125 136.292969 75.90625 134.546875 83.195312 136.648438 C 89.851562 138.5625 95.65625 142.160156 101.398438 145.902344 C 107.730469 150.03125 113.90625 154.433594 120.808594 157.621094 C 121.890625 158.117188 122.992188 158.566406 124.515625 159.226562 C 123.539062 156.4375 122.71875 154.097656 121.894531 151.757812 C 121.167969 149.6875 120.429688 147.617188 119.71875 145.539062 C 119.4375 144.722656 119.152344 143.875 120.03125 143.203125 C 120.894531 142.542969 121.847656 142.515625 122.792969 142.953125 C 124.433594 143.714844 125.148438 145.175781 125.59375 146.820312 C 126.816406 151.347656 128.042969 155.878906 129.339844 160.402344 C 128.660156 156.046875 127.972656 151.6875 127.308594 147.328125 C 126.917969 144.769531 127.859375 143.203125 129.980469 142.816406 C 131.808594 142.488281 133.714844 144.117188 134.0625 146.410156 C 134.769531 151.039062 135.421875 155.679688 135.777344 158.109375 C 135.777344 155.769531 135.859375 151.21875 135.738281 146.675781 C 135.6875 144.652344 136.71875 143.597656 138.332031 142.9375 C 139.910156 142.292969 140.972656 143.308594 141.996094 144.335938 C 142.648438 144.984375 142.578125 145.769531 142.574219 146.558594 C 142.554688 151.617188 142.585938 156.683594 142.296875 161.746094 C 142.929688 156.96875 143.570312 152.191406 144.1875 147.414062 C 144.351562 146.128906 144.546875 144.929688 145.542969 143.925781 C 146.628906 142.835938 147.792969 142.40625 149.164062 143.085938 C 150.601562 143.800781 151.621094 144.808594 151.285156 146.695312 C 150.628906 150.402344 150.074219 154.125 149.664062 157.882812 C 150.769531 154.019531 151.910156 150.167969 152.960938 146.292969 C 153.382812 144.75 154.300781 143.714844 155.6875 143.054688 C 156.574219 142.632812 157.488281 142.648438 158.289062 143.257812 C 159.117188 143.890625 158.972656 144.75 158.671875 145.59375 C 156.359375 152.085938 154.035156 158.574219 151.734375 165.070312 C 151.375 166.078125 150.617188 166.753906 149.570312 167.601562 C 171.945312 173.03125 194.496094 171.828125 216.886719 172.527344 C 216.914062 173.445312 216.367188 173.351562 216.003906 173.429688 C 206.644531 175.441406 197.257812 177.238281 187.714844 178.167969 C 180.292969 178.894531 172.867188 179.105469 165.429688 178.863281 C 151.296875 178.398438 137.65625 175.46875 124.257812 171.007812 C 114.433594 167.738281 105.597656 162.613281 96.714844 157.492188 C 92.433594 155.023438 88.097656 152.648438 83.496094 150.816406 C 82.984375 150.613281 82.46875 150.425781 81.945312 150.253906 C 77.667969 148.859375 76.800781 149.160156 74.066406 152.726562 C 66.714844 162.320312 59.273438 171.832031 50.488281 180.203125 C 39.203125 190.957031 25.902344 198.355469 11.445312 203.8125 C 7.164062 205.429688 2.230469 202.683594 0.976562 198.304688 C 0.84375 197.839844 0.664062 197.386719 0.433594 196.816406 C 0.367188 196.078125 0.367188 195.449219 0.367188 194.664062 Z M 0.367188 194.664062 " fill-opacity="1" fill-rule="nonzero"/><g clip-path="url(#5ccec7d9bf)"><path fill="#000000" d="M 52.886719 299.289062 C 52.730469 286.21875 51.628906 273.234375 49.773438 260.296875 C 47.753906 246.21875 44.960938 232.316406 40.601562 218.761719 C 39.203125 214.40625 37.53125 210.148438 35.550781 206.011719 C 33.710938 202.167969 35.140625 197.574219 38.773438 195.269531 C 42.273438 193.046875 47.273438 193.851562 49.835938 197.179688 C 51.320312 199.105469 51.722656 201.535156 52.347656 203.808594 C 55.554688 215.460938 57.660156 227.328125 59.121094 239.324219 C 60.359375 249.496094 61.320312 259.683594 61.171875 269.941406 C 61.074219 276.648438 60.632812 283.335938 59.007812 289.882812 C 58.175781 293.230469 56.933594 296.390625 54.640625 299.1875 C 54.058594 299.289062 53.546875 299.289062 52.886719 299.289062 Z M 52.886719 299.289062 " fill-opacity="1" fill-rule="nonzero"/></g><path fill="#000000" d="M 146.757812 123.265625 C 147.058594 125.054688 147.769531 126.226562 149.457031 126.953125 C 151.527344 127.839844 152.71875 129.691406 153.246094 131.851562 C 153.558594 133.125 154.207031 133.984375 155.253906 134.730469 C 157.28125 136.171875 158.472656 138.203125 158.960938 140.632812 C 159.203125 141.859375 159.03125 142.75 157.394531 142.316406 C 156.039062 141.957031 154.875 142.328125 153.929688 143.398438 C 152.917969 144.542969 151.917969 144.425781 150.753906 143.496094 C 148.4375 141.652344 147.320312 141.636719 145.117188 143.484375 C 143.996094 144.425781 143.113281 144.3125 142.039062 143.488281 C 139.640625 141.644531 138.515625 141.644531 136.246094 143.550781 C 135.214844 144.421875 134.398438 144.417969 133.359375 143.5625 C 131.003906 141.628906 130.285156 141.632812 127.75 143.449219 C 126.613281 144.261719 125.570312 144.417969 124.433594 143.472656 C 123.316406 142.542969 122.082031 141.996094 120.550781 142.371094 C 119.515625 142.625 119.203125 141.945312 119.382812 141.089844 C 119.59375 140.082031 119.851562 139.058594 120.269531 138.121094 C 121.679688 134.964844 122.289062 134.75 125.53125 135.730469 C 127.097656 136.203125 128.714844 136.511719 130.351562 136.746094 C 128.890625 136.097656 127.441406 135.425781 125.964844 134.816406 C 124.863281 134.363281 124.53125 133.585938 124.789062 132.476562 C 125.257812 130.453125 126.242188 128.742188 127.84375 127.398438 C 128.828125 126.574219 129.9375 126.488281 131.359375 127.023438 C 130.378906 124.089844 131.5 121.902344 133.148438 119.851562 C 133.921875 118.890625 134.445312 117.789062 134.691406 116.570312 C 134.863281 115.734375 135.269531 115.199219 136.207031 115.445312 C 140.714844 116.628906 144.71875 118.5 146.757812 123.265625 Z M 146.757812 123.265625 " fill-opacity="1" fill-rule="nonzero"/><path fill="#000000" d="M 183.984375 226.964844 C 189.3125 233.023438 195.957031 234.261719 203.382812 232.703125 C 206.390625 232.070312 209.195312 230.882812 211.84375 229.316406 C 212.3125 229.039062 212.792969 228.769531 213.253906 228.472656 C 214.058594 227.960938 214.808594 228.066406 215.363281 228.792969 C 216.042969 229.6875 215.191406 230.105469 214.644531 230.527344 C 210.40625 233.785156 205.707031 235.957031 200.359375 236.648438 C 193.148438 237.578125 186.332031 236.675781 180.386719 232.160156 C 170.691406 224.800781 169.589844 210.398438 177.875 200.957031 C 182.964844 195.15625 189.507812 192.476562 197.019531 191.84375 C 202.300781 191.402344 207.496094 191.804688 212.464844 193.832031 C 215.199219 194.949219 215.550781 195.679688 215.242188 198.597656 C 215.085938 200.050781 215.113281 201.519531 215.027344 202.980469 C 214.980469 203.777344 214.964844 204.660156 213.835938 204.6875 C 212.75 204.710938 212.328125 204.082031 212.335938 203.058594 C 212.347656 200.714844 211.210938 199.007812 209.351562 197.699219 C 202.679688 193.007812 187.90625 192.625 182.339844 203.542969 C 178.289062 211.496094 178.632812 219.40625 183.984375 226.964844 Z M 183.984375 226.964844 " fill-opacity="1" fill-rule="nonzero"/><path fill="#000000" d="M 80.078125 203.992188 C 80.078125 202.164062 80.105469 200.519531 80.078125 198.871094 C 80.042969 196.671875 79.332031 195.886719 77.117188 195.796875 C 75.847656 195.746094 74.566406 195.917969 73.289062 196 C 72.523438 196.046875 71.9375 195.839844 71.875 194.964844 C 71.816406 194.140625 72.453125 193.960938 73.058594 193.84375 C 76.234375 193.226562 79.417969 192.640625 82.664062 192.679688 C 85.730469 192.71875 86.878906 193.878906 86.898438 196.910156 C 86.949219 205.511719 86.449219 214.089844 85.855469 222.664062 C 85.628906 225.921875 85.414062 229.183594 85.191406 232.441406 C 85.464844 232.542969 85.636719 232.667969 85.796875 232.652344 C 91.214844 232.210938 96.636719 232.519531 102.058594 232.535156 C 105.742188 232.542969 107.238281 231.390625 108.277344 227.878906 C 108.433594 227.355469 108.570312 226.824219 108.679688 226.285156 C 108.84375 225.476562 109.339844 225.179688 110.132812 225.257812 C 110.953125 225.335938 111.351562 225.824219 111.296875 226.601562 C 111.199219 227.996094 111.15625 229.417969 110.859375 230.777344 C 109.808594 235.585938 106.949219 237.324219 101.5625 236.605469 C 96.90625 235.984375 92.25 235.441406 87.535156 235.570312 C 85.03125 235.640625 82.539062 235.792969 80.078125 236.25 C 78.703125 236.503906 78.082031 236.078125 78.316406 234.632812 C 79.535156 227.085938 79.597656 219.460938 79.820312 211.847656 C 79.894531 209.285156 79.992188 206.726562 80.078125 203.992188 Z M 80.078125 203.992188 " fill-opacity="1" fill-rule="nonzero"/><path fill="#000000" d="M 144.515625 236.523438 C 139.136719 236.730469 136.1875 234.027344 136.3125 228.953125 C 134.5625 231.074219 132.792969 232.949219 130.640625 234.414062 C 127.617188 236.472656 124.355469 237.328125 120.746094 236.332031 C 118.484375 235.703125 116.78125 234.386719 116.199219 232.027344 C 115.609375 229.636719 116.300781 227.566406 118.113281 225.886719 C 121.078125 223.140625 124.828125 222.257812 128.621094 221.570312 C 130.773438 221.183594 132.972656 221.003906 135.160156 220.871094 C 136.40625 220.796875 136.828125 220.304688 136.886719 219.085938 C 137.019531 216.277344 137.269531 213.472656 134.105469 212.003906 C 131.355469 210.726562 128.539062 210.730469 125.761719 211.855469 C 124.109375 212.523438 123.613281 214.261719 124.394531 216 C 124.710938 216.707031 125.441406 217.226562 125.34375 218.292969 C 123.515625 219.105469 121.628906 219.15625 119.816406 218.203125 C 118.386719 217.453125 118.0625 215.589844 118.949219 214.007812 C 119.59375 212.863281 120.554688 212 121.695312 211.382812 C 126.457031 208.804688 131.507812 207.730469 136.878906 208.714844 C 140.828125 209.441406 142.808594 212.003906 142.960938 216.003906 C 143.109375 219.988281 142.265625 223.882812 142.101562 227.84375 C 141.878906 233.355469 145.4375 234.554688 149.378906 233.257812 C 150.039062 233.042969 150.878906 232.488281 151.320312 233.40625 C 151.84375 234.492188 150.691406 234.683594 150.089844 235.050781 C 148.4375 236.0625 146.597656 236.460938 144.515625 236.523438 M 133.152344 223.167969 C 130.820312 223.238281 128.578125 223.757812 126.394531 224.546875 C 125.234375 224.96875 124.195312 225.597656 123.4375 226.601562 C 122.457031 227.90625 122.050781 229.320312 122.835938 230.859375 C 123.617188 232.398438 125.023438 232.640625 126.570312 232.527344 C 130.089844 232.265625 135.183594 227.925781 136.007812 224.515625 C 136.234375 223.570312 135.921875 223.105469 134.945312 223.117188 C 134.457031 223.121094 133.972656 223.140625 133.152344 223.167969 Z M 133.152344 223.167969 " fill-opacity="1" fill-rule="nonzero"/><path fill="#000000" d="M 234.585938 211.136719 C 233.722656 211.34375 232.992188 211.46875 232.3125 211.730469 C 230.320312 212.511719 229.753906 214.058594 230.644531 215.988281 C 230.964844 216.6875 231.671875 217.230469 231.5625 218.292969 C 229.738281 219.082031 227.851562 219.171875 226.035156 218.207031 C 224.566406 217.429688 224.226562 215.613281 225.117188 214.046875 C 225.734375 212.960938 226.636719 212.109375 227.707031 211.511719 C 232.550781 208.8125 237.710938 207.644531 243.210938 208.746094 C 247.199219 209.546875 249.042969 212.058594 249.160156 216.148438 C 249.261719 219.828125 248.214844 223.40625 248.359375 227.078125 C 248.378906 227.566406 248.339844 228.054688 248.34375 228.542969 C 248.382812 232.683594 250.789062 234.496094 254.828125 233.519531 C 255.722656 233.304688 257.035156 232.121094 257.515625 233.527344 C 257.96875 234.835938 256.273438 235.066406 255.371094 235.492188 C 252.921875 236.652344 250.300781 236.820312 247.675781 236.332031 C 244.363281 235.714844 242.4375 232.976562 242.488281 229.003906 C 240.710938 231.070312 238.960938 232.984375 236.796875 234.453125 C 233.765625 236.511719 230.492188 237.316406 226.890625 236.316406 C 222.046875 234.972656 220.609375 229.722656 224.105469 226.121094 C 226.464844 223.691406 229.570312 222.75 232.722656 221.957031 C 235.570312 221.242188 238.503906 221.074219 241.417969 220.867188 C 242.566406 220.78125 243.113281 220.34375 243.074219 219.199219 C 243.074219 219.140625 243.078125 219.078125 243.085938 219.015625 C 243.984375 212.480469 240.179688 210.890625 234.585938 211.136719 M 231.769531 232.535156 C 236.667969 232.484375 242.570312 227.222656 242.167969 223.195312 C 240.910156 223.195312 239.628906 223.074219 238.378906 223.222656 C 235.722656 223.539062 233.046875 223.941406 230.78125 225.53125 C 229.351562 226.527344 228.523438 227.9375 228.765625 229.746094 C 228.96875 231.300781 229.855469 232.285156 231.769531 232.535156 Z M 231.769531 232.535156 " fill-opacity="1" fill-rule="nonzero"/><path fill="#000000" d="M 365.5625 228.160156 C 365.167969 232.9375 368.382812 234.578125 372.5 233.347656 C 372.910156 233.226562 373.308594 233.066406 373.722656 232.976562 C 374.183594 232.875 374.578125 233.027344 374.792969 233.472656 C 375.039062 233.980469 374.683594 234.25 374.351562 234.535156 C 371.808594 236.722656 365.535156 237.226562 362.675781 235.464844 C 360.324219 234.015625 359.746094 231.722656 359.71875 228.957031 C 357.945312 230.953125 356.273438 232.839844 354.1875 234.28125 C 351.191406 236.359375 347.957031 237.3125 344.324219 236.371094 C 342.046875 235.777344 340.300781 234.480469 339.636719 232.183594 C 338.957031 229.828125 339.640625 227.734375 341.414062 226.007812 C 343.839844 223.652344 346.914062 222.691406 350.082031 221.945312 C 352.878906 221.289062 355.742188 221.070312 358.601562 220.871094 C 359.730469 220.792969 360.164062 220.382812 360.285156 219.226562 C 360.558594 216.59375 360.78125 214.015625 358.109375 212.390625 C 355.175781 210.605469 352.054688 210.613281 348.988281 211.949219 C 347.632812 212.542969 347.074219 213.828125 347.597656 215.324219 C 347.914062 216.230469 348.382812 217.078125 348.777344 217.933594 C 347.078125 219.285156 343.824219 219.117188 342.570312 217.675781 C 341.351562 216.277344 341.609375 214.015625 343.605469 212.554688 C 349.140625 208.5 355.320312 207.246094 361.941406 209.269531 C 364.902344 210.171875 366.203125 212.546875 366.316406 215.589844 C 366.410156 217.972656 366.25 220.355469 365.882812 222.703125 C 365.605469 224.464844 365.605469 226.222656 365.5625 228.160156 M 348.957031 232.535156 C 353.957031 232.488281 359.691406 227.320312 359.425781 223.210938 C 358.027344 223.210938 356.613281 223.058594 355.246094 223.246094 C 352.785156 223.578125 350.289062 223.964844 348.132812 225.347656 C 346.539062 226.367188 345.613281 227.867188 345.875 229.808594 C 346.082031 231.351562 347.078125 232.28125 348.957031 232.535156 Z M 348.957031 232.535156 " fill-opacity="1" fill-rule="nonzero"/><path fill="#000000" d="M 227.335938 258.257812 C 237.546875 261.898438 237.679688 274.285156 231.261719 281.039062 C 226.804688 285.734375 221.070312 287.1875 214.796875 287.089844 C 212.0625 287.046875 209.363281 286.289062 206.609375 286.648438 C 205.445312 286.800781 205.253906 286.132812 205.355469 285.210938 C 206.070312 278.65625 206.015625 272.066406 206.324219 265.492188 C 206.378906 264.277344 206.367188 263.054688 206.382812 261.835938 C 206.410156 260.0625 205.511719 259.273438 203.769531 259.375 C 203.527344 259.390625 203.277344 259.429688 203.039062 259.390625 C 202.296875 259.265625 201.097656 259.960938 200.976562 258.65625 C 200.871094 257.46875 202.109375 257.742188 202.78125 257.652344 C 209.972656 256.683594 217.171875 255.839844 224.390625 257.421875 C 225.339844 257.628906 226.265625 257.945312 227.335938 258.257812 M 215.136719 258.714844 C 214.648438 258.710938 214.164062 258.707031 213.675781 258.710938 C 211.109375 258.722656 211.09375 258.722656 211.070312 261.203125 C 211.007812 268.527344 210.613281 275.832031 210.136719 283.136719 C 210.078125 284.054688 210.292969 284.496094 211.222656 284.636719 C 215.140625 285.21875 219.023438 285.179688 222.753906 283.703125 C 228.617188 281.386719 230.628906 275.566406 230.40625 270.371094 C 230.179688 265.046875 227.636719 261.382812 222.523438 259.675781 C 220.253906 258.917969 217.878906 258.707031 215.136719 258.714844 Z M 215.136719 258.714844 " fill-opacity="1" fill-rule="nonzero"/><path fill="#000000" d="M 277.007812 226.941406 C 273.765625 225.65625 270.640625 224.445312 267.523438 223.210938 C 266.210938 222.691406 265.003906 221.964844 263.914062 221.074219 C 260.535156 218.328125 260.621094 214.21875 264.105469 211.609375 C 265.535156 210.542969 267.125 209.808594 268.847656 209.300781 C 272.308594 208.277344 275.796875 208.039062 279.328125 208.796875 C 280.332031 209.011719 281.347656 209.3125 282.269531 209.757812 C 284.570312 210.859375 285.523438 212.640625 284.882812 214.371094 C 284.289062 215.988281 281.828125 217.007812 279.722656 216.5625 C 278.859375 216.378906 278.566406 215.9375 278.90625 215.132812 C 279.621094 213.445312 278.835938 212.328125 277.378906 211.777344 C 274.40625 210.652344 271.378906 210.617188 268.539062 212.191406 C 265.984375 213.605469 265.953125 215.800781 268.285156 217.535156 C 270.1875 218.949219 272.441406 219.550781 274.597656 220.378906 C 277.042969 221.320312 279.546875 222.140625 281.796875 223.519531 C 286.1875 226.214844 286.445312 231.214844 282.054688 233.929688 C 275.714844 237.851562 269 237.714844 262.273438 234.785156 C 261.726562 234.546875 261.230469 234.136719 260.800781 233.714844 C 259.824219 232.75 259.261719 231.628906 260.023438 230.273438 C 260.605469 229.234375 263.261719 228.210938 264.242188 228.582031 C 264.550781 228.695312 264.769531 228.882812 264.871094 229.191406 C 265.96875 232.574219 268.773438 233.46875 271.839844 233.929688 C 273.753906 234.21875 275.617188 233.875 277.386719 233.136719 C 278.597656 232.628906 279.648438 231.921875 279.757812 230.398438 C 279.859375 228.949219 278.960938 228.175781 277.90625 227.488281 C 277.648438 227.320312 277.386719 227.164062 277.007812 226.941406 Z M 277.007812 226.941406 " fill-opacity="1" fill-rule="nonzero"/><path fill="#000000" d="M 316.992188 231.132812 C 316.289062 225.433594 316.585938 219.902344 317.222656 214.378906 C 317.464844 212.28125 317.398438 212.199219 315.3125 212.214844 C 314.011719 212.222656 312.703125 212.914062 311.332031 212.246094 C 311.195312 211.113281 312.082031 210.902344 312.777344 210.691406 C 313.945312 210.34375 315.140625 210.03125 316.347656 209.921875 C 317.601562 209.808594 317.964844 209.128906 318.128906 208.039062 C 318.671875 204.367188 319.339844 200.714844 320.273438 197.113281 C 320.835938 194.9375 324.136719 193.785156 325.90625 195.109375 C 326.546875 195.585938 326.367188 196.164062 326.214844 196.757812 C 325.308594 200.367188 324.671875 204.027344 323.980469 207.675781 C 323.675781 209.277344 324.027344 209.949219 325.75 209.882812 C 328.1875 209.792969 330.628906 209.875 333.070312 209.851562 C 333.949219 209.84375 334.71875 209.976562 334.757812 211.039062 C 334.800781 212.046875 334.042969 212.453125 333.210938 212.496094 C 330.59375 212.636719 327.960938 212.746094 325.359375 212.328125 C 323.78125 212.074219 323.160156 212.542969 323.082031 214.199219 C 322.855469 218.9375 321.980469 223.648438 322.730469 228.421875 C 323.230469 231.601562 325.382812 233.378906 328.582031 233.128906 C 330.414062 232.980469 332.210938 232.675781 333.945312 232.058594 C 334.609375 231.824219 335.3125 231.632812 335.667969 232.472656 C 336.046875 233.378906 335.277344 233.644531 334.683594 233.914062 C 331.507812 235.363281 328.277344 236.644531 324.726562 236.742188 C 320.316406 236.863281 318.445312 235.519531 316.992188 231.132812 Z M 316.992188 231.132812 " fill-opacity="1" fill-rule="nonzero"/><path fill="#000000" d="M 142.90625 287.148438 C 140.78125 286.9375 140.3125 285.46875 140.226562 283.882812 C 140.113281 281.820312 140.199219 279.746094 140.199219 277.28125 C 138.609375 279.699219 137.175781 281.777344 135.398438 283.578125 C 134.359375 284.632812 133.191406 285.503906 131.910156 286.222656 C 127.394531 288.761719 122.8125 286.191406 122.5625 280.988281 C 122.273438 274.921875 126.441406 269.582031 132.59375 268.082031 C 135.261719 267.429688 137.894531 267.707031 140.769531 268.425781 C 140.933594 266.765625 141.175781 265.285156 141.210938 263.796875 C 141.289062 260.621094 141.75 257.484375 142.074219 254.339844 C 142.167969 253.40625 142.222656 252.320312 143.367188 251.902344 C 144.433594 251.511719 145.578125 251.375 146.554688 251.980469 C 147.558594 252.605469 146.984375 253.675781 146.835938 254.503906 C 145.242188 263.332031 143.949219 272.183594 144.304688 281.199219 C 144.425781 284.296875 144.929688 284.722656 147.960938 284.167969 C 148.257812 284.113281 148.554688 284.042969 148.855469 283.980469 C 149.285156 283.886719 149.742188 283.792969 149.9375 284.324219 C 150.140625 284.871094 149.699219 285.089844 149.324219 285.285156 C 147.355469 286.3125 145.253906 286.902344 142.90625 287.148438 M 140.039062 272.878906 C 140.824219 270.300781 140.574219 269.925781 137.890625 269.699219 C 131.824219 269.175781 127.878906 272.164062 126.984375 278.148438 C 126.703125 280.035156 126.984375 282.070312 128.738281 283.21875 C 130.363281 284.285156 131.882812 283.171875 133.296875 282.339844 C 133.765625 282.066406 134.179688 281.691406 134.582031 281.316406 C 137.03125 279.03125 138.777344 276.277344 140.039062 272.878906 Z M 140.039062 272.878906 " fill-opacity="1" fill-rule="nonzero"/><path fill="#000000" d="M 262.949219 268.996094 C 262.710938 273.214844 261.863281 277.261719 262.640625 281.355469 C 263.191406 284.277344 264.222656 285.03125 267.148438 284.503906 C 267.679688 284.410156 268.320312 284.113281 268.589844 284.800781 C 268.867188 285.503906 268.171875 285.746094 267.714844 285.972656 C 265.511719 287.050781 263.203125 287.710938 260.890625 286.460938 C 258.5625 285.199219 258.085938 282.921875 258.128906 280.492188 C 258.140625 279.648438 258.25 278.808594 258.339844 277.683594 C 256.945312 280.378906 255.730469 282.902344 253.582031 284.765625 C 251.628906 286.464844 249.472656 287.636719 246.753906 287.042969 C 244.449219 286.535156 243.1875 285.042969 243.042969 282.691406 C 242.894531 280.300781 243.425781 277.957031 243.589844 275.589844 C 243.632812 274.921875 243.761719 274.257812 243.777344 273.59375 C 243.867188 270.035156 243.832031 270.011719 240.261719 270.367188 C 239.730469 270.417969 239.054688 270.59375 238.859375 269.898438 C 238.636719 269.121094 239.386719 269.027344 239.871094 268.902344 C 241.464844 268.496094 243.0625 268.066406 244.683594 267.8125 C 247.269531 267.40625 248.371094 268.390625 248.214844 271.046875 C 248.070312 273.539062 247.710938 276.015625 247.464844 278.503906 C 247.378906 279.351562 247.28125 280.207031 247.3125 281.054688 C 247.386719 283.3125 248.980469 284.28125 251.101562 283.386719 C 253.1875 282.507812 254.433594 280.773438 255.5 278.898438 C 257.085938 276.117188 258.148438 273.15625 258.503906 269.949219 C 258.597656 269.113281 258.726562 268.046875 259.867188 268.121094 C 260.898438 268.191406 262.339844 266.886719 262.949219 268.996094 Z M 262.949219 268.996094 " fill-opacity="1" fill-rule="nonzero"/><path fill="#000000" d="M 307.484375 232.480469 C 308.257812 232.332031 309.019531 231.816406 309.382812 232.710938 C 309.738281 233.578125 308.90625 233.871094 308.332031 234.140625 C 305.554688 235.441406 302.652344 236.355469 299.59375 236.652344 C 297.316406 236.875 295.964844 235.824219 295.433594 233.464844 C 294.539062 229.496094 294.667969 225.457031 294.886719 221.445312 C 295.070312 218.101562 294.964844 214.742188 295.421875 211.410156 C 295.585938 210.234375 295.824219 209.21875 297.128906 208.914062 C 298.699219 208.550781 300.3125 208.429688 301.730469 209.320312 C 302.390625 209.734375 301.949219 210.597656 301.828125 211.210938 C 300.730469 216.867188 300.511719 222.570312 300.738281 228.308594 C 300.914062 232.730469 301.941406 233.574219 306.261719 232.742188 C 306.621094 232.675781 306.976562 232.585938 307.484375 232.480469 Z M 307.484375 232.480469 " fill-opacity="1" fill-rule="nonzero"/><path fill="#000000" d="M 164.710938 284.265625 C 166.417969 284.269531 167.679688 283.546875 168.921875 282.746094 C 169.484375 282.382812 170.1875 281.902344 170.710938 282.597656 C 171.316406 283.398438 170.40625 283.773438 169.949219 284.167969 C 167.90625 285.925781 165.539062 287.066406 162.847656 287.207031 C 158.953125 287.40625 155.570312 286.226562 153.535156 282.644531 C 151.757812 279.511719 152.496094 275.191406 155.15625 272.089844 C 158.292969 268.4375 162.351562 267.265625 166.992188 267.816406 C 167.757812 267.90625 168.53125 268.226562 169.226562 268.585938 C 171.859375 269.953125 172.078125 272.730469 169.664062 274.4375 C 167.25 276.148438 164.398438 276.589844 161.558594 277.007812 C 160.65625 277.136719 159.742188 277.210938 158.839844 277.339844 C 156.820312 277.628906 156.699219 277.832031 157.304688 279.75 C 158.304688 282.914062 160.554688 284.320312 164.710938 284.265625 M 164.074219 274.632812 C 165.429688 274.011719 166.859375 273.398438 166.445312 271.503906 C 166.160156 270.214844 164.363281 269.476562 162.46875 269.742188 C 159.691406 270.128906 157.503906 272.621094 157.429688 275.730469 C 159.613281 275.679688 161.726562 275.371094 164.074219 274.632812 Z M 164.074219 274.632812 " fill-opacity="1" fill-rule="nonzero"/><path fill="#000000" d="M 315.109375 268.566406 C 317.769531 267.585938 320.34375 267.386719 322.957031 268.085938 C 324.714844 268.554688 326.164062 269.5 326.324219 271.472656 C 326.480469 273.421875 325.011719 274.390625 323.515625 275.144531 C 320.402344 276.71875 316.960938 276.972656 313.578125 277.300781 C 311.953125 277.457031 311.8125 278.082031 312.160156 279.398438 C 313.289062 283.648438 317.964844 285.613281 322.355469 283.617188 C 323.128906 283.265625 323.828125 282.757812 324.585938 282.371094 C 324.988281 282.164062 325.429688 282.183594 325.738281 282.585938 C 326.003906 282.929688 325.933594 283.296875 325.636719 283.570312 C 322.769531 286.230469 319.433594 287.691406 315.484375 287.117188 C 311.785156 286.582031 308.984375 284.742188 307.847656 280.957031 C 306.683594 277.078125 308.980469 272.070312 313.027344 269.621094 C 313.648438 269.246094 314.324219 268.953125 315.109375 268.566406 M 320.988281 270.75 C 319.371094 269.191406 317.515625 269.453125 315.75 270.285156 C 313.621094 271.289062 312.660156 273.191406 312.1875 275.695312 C 315.238281 275.5625 318.046875 275.433594 320.535156 273.839844 C 321.625 273.136719 321.75 272.101562 320.988281 270.75 Z M 320.988281 270.75 " fill-opacity="1" fill-rule="nonzero"/><path fill="#000000" d="M 276.949219 281.21875 C 277.066406 284.308594 277.699219 284.777344 280.5625 284.207031 C 281.210938 284.078125 281.933594 283.515625 282.589844 284.257812 C 282.710938 285.109375 282.019531 285.277344 281.503906 285.511719 C 279.945312 286.210938 278.347656 286.785156 276.636719 287.015625 C 274.394531 287.316406 273.296875 286.640625 272.941406 284.3125 C 272.476562 281.289062 272.671875 278.226562 272.863281 275.1875 C 273.253906 268.933594 273.742188 262.683594 274.203125 256.429688 C 274.265625 255.582031 274.445312 254.738281 274.464844 253.890625 C 274.511719 252.105469 275.628906 251.632812 277.136719 251.613281 C 279.042969 251.585938 279.464844 252.078125 279.199219 253.960938 C 277.9375 262.949219 276.753906 271.941406 276.949219 281.21875 Z M 276.949219 281.21875 " fill-opacity="1" fill-rule="nonzero"/><path fill="#000000" d="M 181.75 282.933594 C 182.390625 284.972656 183.839844 284.277344 185.128906 284.1875 C 185.832031 284.140625 186.863281 283.273438 187.183594 284.390625 C 187.460938 285.359375 186.253906 285.519531 185.578125 285.773438 C 184.328125 286.242188 183.042969 286.660156 181.734375 286.921875 C 178.890625 287.496094 177.628906 286.503906 177.535156 283.484375 C 177.441406 280.4375 177.417969 277.378906 177.597656 274.339844 C 177.992188 267.71875 178.535156 261.105469 179.019531 254.488281 C 179.191406 252.105469 180.300781 251.261719 182.640625 251.664062 C 183.746094 251.855469 184.175781 252.355469 184 253.546875 C 183.382812 257.699219 182.734375 261.851562 182.332031 266.027344 C 181.789062 271.597656 181.113281 277.175781 181.75 282.933594 Z M 181.75 282.933594 " fill-opacity="1" fill-rule="nonzero"/><path fill="#000000" d="M 294.144531 268.078125 C 296.84375 267.515625 299.378906 267.402344 301.824219 268.480469 C 302.902344 268.957031 303.875 269.621094 304.0625 270.929688 C 304.199219 271.894531 303.980469 272.761719 303.09375 273.324219 C 302.152344 273.921875 301.117188 273.878906 300.097656 273.628906 C 299.582031 273.503906 299.566406 273.046875 299.679688 272.585938 C 300.121094 270.808594 299 270.109375 297.589844 269.777344 C 295.003906 269.175781 292.21875 270.449219 290.847656 272.746094 C 287.949219 277.59375 290.054688 283.363281 295.105469 284.390625 C 297.128906 284.804688 298.960938 284.226562 300.691406 283.21875 C 301.058594 283.003906 301.394531 282.730469 301.757812 282.507812 C 302.253906 282.199219 302.800781 281.992188 303.203125 282.589844 C 303.5625 283.113281 303.144531 283.503906 302.800781 283.851562 C 300.058594 286.589844 296.671875 287.597656 292.933594 287.105469 C 288.648438 286.539062 286.007812 283.980469 285.273438 280.113281 C 284.636719 276.761719 287.015625 271.9375 290.367188 269.820312 C 291.5 269.101562 292.707031 268.515625 294.144531 268.078125 Z M 294.144531 268.078125 " fill-opacity="1" fill-rule="nonzero"/><path fill="#000000" d="M 299.605469 201.226562 C 297.433594 200.914062 296.121094 199.714844 295.980469 198.0625 C 295.851562 196.511719 296.996094 195.09375 298.847656 194.511719 C 300.664062 193.941406 302.765625 194.585938 303.582031 195.957031 C 304.933594 198.230469 302.90625 201.023438 299.605469 201.226562 Z M 299.605469 201.226562 " fill-opacity="1" fill-rule="nonzero"/></svg>